<?xml version="1.0" encoding="UTF-8" standalone="no"?>
<!-- Created with Inkscape (http://www.inkscape.org/) -->

<svg
   xmlns:dc="http://purl.org/dc/elements/1.1/"
   xmlns:cc="http://creativecommons.org/ns#"
   xmlns:rdf="http://www.w3.org/1999/02/22-rdf-syntax-ns#"
   xmlns:svg="http://www.w3.org/2000/svg"
   xmlns="http://www.w3.org/2000/svg"
   xmlns:sodipodi="http://sodipodi.sourceforge.net/DTD/sodipodi-0.dtd"
   xmlns:inkscape="http://www.inkscape.org/namespaces/inkscape"
   width="51.025841mm"
   height="71.815781mm"
   viewBox="0 0 51.025841 71.815781"
   version="1.1"
   id="svg8"
   inkscape:version="0.92.0 r15299"
   sodipodi:docname="cel.svg">
  <defs
     id="defs2" />
  <sodipodi:namedview
     id="base"
     pagecolor="#ffffff"
     bordercolor="#666666"
     borderopacity="1.0"
     inkscape:pageopacity="0.0"
     inkscape:pageshadow="2"
     inkscape:zoom="0.19414063"
     inkscape:cx="-950.02739"
     inkscape:cy="82.290654"
     inkscape:document-units="mm"
     inkscape:current-layer="layer1"
     showgrid="false"
     inkscape:window-width="1366"
     inkscape:window-height="715"
     inkscape:window-x="1016"
     inkscape:window-y="31"
     inkscape:window-maximized="1"
     fit-margin-top="0"
     fit-margin-left="0"
     fit-margin-right="0"
     fit-margin-bottom="0" />
  <metadata
     id="metadata5">
    <rdf:RDF>
      <cc:Work
         rdf:about="">
        <dc:format>image/svg+xml</dc:format>
        <dc:type
           rdf:resource="http://purl.org/dc/dcmitype/StillImage" />
        <dc:title></dc:title>
      </cc:Work>
    </rdf:RDF>
  </metadata>
  <g
     inkscape:label="Camada 1"
     inkscape:groupmode="layer"
     id="layer1"
     transform="translate(-112.82636,-138.24985)">
    <g
       id="g4628"
       style="fill:#000080">
      <path
         sodipodi:nodetypes="cccccccccccccccccc"
         inkscape:connector-curvature="0"
         id="path4539-2-8-2"
         d="m 112.82636,202.12813 c 4.4e-4,4.38358 3.55392,7.93706 7.9375,7.9375 h 35.15084 c 4.38358,-5.3e-4 7.93706,-3.55392 7.9375,-7.9375 v -55.94077 c -5.3e-4,-4.38359 -3.55392,-7.93707 -7.9375,-7.93751 h -35.15084 c -4.38358,5.3e-4 -7.93706,3.55392 -7.9375,7.93751 z m 6.7815,-5.3082 v -45.32487 c 4.3e-4,-3.88287 2.77141,-7.03048 6.18981,-7.03111 h 25.08323 c 3.4186,2.6e-4 6.1899,3.14801 6.19032,7.03111 v 45.32487 c -5.3e-4,3.8831 -2.77172,7.0308 -6.19032,7.03109 h -25.08323 c -3.4184,-5.3e-4 -6.18939,-3.14822 -6.18981,-7.03109 z"
         style="opacity:1;fill:#000080;fill-opacity:1;stroke:none;stroke-width:0.2199107" />
      <ellipse
         ry="3.7587392"
         rx="4.0038743"
         cy="194.61435"
         cx="138.33928"
         id="path4587-8"
         style="opacity:1;fill:#000080;fill-opacity:1;stroke:none;stroke-width:0.02022262" />
    </g>
  </g>
</svg>
