<?xml version="1.0" encoding="UTF-8" standalone="no"?>
<svg
   xmlns:dc="http://purl.org/dc/elements/1.1/"
   xmlns:cc="http://creativecommons.org/ns#"
   xmlns:rdf="http://www.w3.org/1999/02/22-rdf-syntax-ns#"
   xmlns:svg="http://www.w3.org/2000/svg"
   xmlns="http://www.w3.org/2000/svg"
   xmlns:sodipodi="http://sodipodi.sourceforge.net/DTD/sodipodi-0.dtd"
   xmlns:inkscape="http://www.inkscape.org/namespaces/inkscape"
   id="svg8"
   version="1.1"
   viewBox="0 0 188.56523 130.08304"
   height="130.08304mm"
   width="188.56523mm"
   sodipodi:docname="desktopFX.svg"
   inkscape:version="0.92.0 r15299">
  <sodipodi:namedview
     pagecolor="#000000"
     bordercolor="#666666"
     borderopacity="1"
     objecttolerance="10"
     gridtolerance="10"
     guidetolerance="10"
     inkscape:pageopacity="0"
     inkscape:pageshadow="2"
     inkscape:window-width="1366"
     inkscape:window-height="715"
     id="namedview7053"
     showgrid="false"
     inkscape:zoom="0.9600278"
     inkscape:cx="470.92376"
     inkscape:cy="245.82621"
     inkscape:window-x="1016"
     inkscape:window-y="31"
     inkscape:window-maximized="1"
     inkscape:current-layer="svg8" />
  <defs
     id="defs2">
    <filter
       height="1.6"
       y="-0.30000001"
       width="1.6"
       x="-0.30000001"
       id="filter5457"
       style="color-interpolation-filters:sRGB">
      <feColorMatrix
         id="feColorMatrix5447"
         result="colormatrix"
         values="1 0 0 0 0 0 1 0 0 0 0 0 1 0 0 -0.2125 -0.7154 -0.0721 1 0 "
         in="SourceGraphic" />
      <feComposite
         k1="0"
         id="feComposite5449"
         result="composite"
         k4="0"
         k3="5.68"
         k2="1"
         operator="arithmetic"
         in2="colormatrix"
         in="SourceGraphic" />
      <feGaussianBlur
         id="feGaussianBlur5451"
         result="blur1"
         stdDeviation="6.31 0.01" />
      <feGaussianBlur
         id="feGaussianBlur5453"
         result="blur2"
         stdDeviation="0.01 5"
         in="composite" />
      <feBlend
         id="feBlend5455"
         result="fbSourceGraphic"
         mode="darken"
         in2="blur1"
         in="blur2" />
      <feColorMatrix
         id="feColorMatrix6863"
         values="0 0 0 -1 0 0 0 0 -1 0 0 0 0 -1 0 0 0 0 1 0"
         in="fbSourceGraphic"
         result="fbSourceGraphicAlpha" />
      <feGaussianBlur
         in="fbSourceGraphic"
         result="blur"
         stdDeviation="3.21 3.06"
         id="feGaussianBlur6865" />
      <feComposite
         result="composite1"
         operator="atop"
         in="fbSourceGraphic"
         id="feComposite6867"
         in2="blur" />
      <feComposite
         result="composite2"
         operator="in"
         id="feComposite6869"
         in2="composite1" />
      <feComposite
         result="composite3"
         operator="in"
         id="feComposite6871"
         in2="composite2" />
      <feTurbulence
         result="turbulence"
         baseFrequency="0.0209 0.6927"
         seed="16"
         numOctaves="1"
         type="turbulence"
         id="feTurbulence6873" />
      <feDisplacementMap
         result="map"
         yChannelSelector="G"
         scale="10.9"
         xChannelSelector="R"
         in="composite3"
         id="feDisplacementMap6875"
         in2="turbulence" />
      <feColorMatrix
         result="colormatrix"
         values="1 0 0 0 0 0 1 0 0 0 0 0 1 0 0 0 0 0 1.04 -0 "
         id="feColorMatrix6877" />
      <feComposite
         result="composite4"
         operator="atop"
         in="composite3"
         id="feComposite6879"
         in2="colormatrix" />
    </filter>
  </defs>
  <metadata
     id="metadata5">
    <rdf:RDF>
      <cc:Work
         rdf:about="">
        <dc:format>image/svg+xml</dc:format>
        <dc:type
           rdf:resource="http://purl.org/dc/dcmitype/StillImage" />
        <dc:title></dc:title>
      </cc:Work>
    </rdf:RDF>
  </metadata>
  <g
     transform="translate(185.0197,-92.246376)"
     id="layer1">
    <g
       style="fill:#000080;filter:url(#filter5457)"
       transform="translate(-164.04167,-61.232143)"
       id="g4606">
      <path
         style="opacity:1;fill:#000080;fill-opacity:1;stroke:none;stroke-width:0.21991065"
         d="m 26.927201,177.86909 a 7.9382955,7.9382955 0 0 0 -7.9375,7.9375 v 45.73416 a 7.9382955,7.9382955 0 0 0 7.9375,7.9375 h 92.982439 a 7.9382955,7.9382955 0 0 0 7.9375,-7.9375 v -45.73416 a 7.9382955,7.9382955 0 0 0 -7.9375,-7.9375 z m 5.308201,6.7815 h 82.366548 a 7.0319595,6.1907874 0 0 1 7.0311,6.1898 v 35.66656 a 7.0319595,6.1907874 0 0 1 -7.0311,6.19032 H 32.235402 a 7.0319595,6.1907874 0 0 1 -7.031091,-6.19032 v -35.66656 a 7.0319595,6.1907874 0 0 1 7.031091,-6.1898 z"
         id="path4539" />
      <path
         style="opacity:1;fill:#000080;fill-opacity:1;stroke:none;stroke-width:0.21991068"
         d="m 26.548781,232.48683 c -4.38358,4.4e-4 -7.93706,3.55392 -7.9375,7.9375 l -4.23333,10.80916 c 4.4e-4,4.38358 3.55392,7.93706 7.9375,7.9375 H 124.29372 c 4.38358,-5.3e-4 7.93706,-3.55392 7.9375,-7.9375 l -4.7625,-10.80916 c -4.4e-4,-4.38358 -3.55392,-7.93706 -7.9375,-7.9375 z m 5.308198,6.7815 h 82.366541 c 3.88288,4.2e-4 7.03048,2.77141 7.0311,6.1898 v 0.74156 c -2.7e-4,3.4186 1.61451,6.1899 -2.2686,6.19032 H 27.623641 c -3.88309,-4.2e-4 -2.79746,-2.77172 -2.79775,-6.19032 v -0.74156 c 6.1e-4,-3.41839 3.14822,-6.18938 7.031088,-6.1898 z"
         id="path4539-2-6" />
    </g>
  </g>
</svg>
