<?xml version="1.0" encoding="UTF-8" standalone="no"?>
<!-- Created with Inkscape (http://www.inkscape.org/) -->

<svg
   xmlns:dc="http://purl.org/dc/elements/1.1/"
   xmlns:cc="http://creativecommons.org/ns#"
   xmlns:rdf="http://www.w3.org/1999/02/22-rdf-syntax-ns#"
   xmlns:svg="http://www.w3.org/2000/svg"
   xmlns="http://www.w3.org/2000/svg"
   xmlns:sodipodi="http://sodipodi.sourceforge.net/DTD/sodipodi-0.dtd"
   xmlns:inkscape="http://www.inkscape.org/namespaces/inkscape"
   width="77.484161mm"
   height="108.85745mm"
   viewBox="0 0 77.484161 108.85745"
   version="1.1"
   id="svg8"
   inkscape:version="0.92.0 r15299"
   sodipodi:docname="tablet.svg">
  <defs
     id="defs2" />
  <sodipodi:namedview
     id="base"
     pagecolor="#ffffff"
     bordercolor="#666666"
     borderopacity="1.0"
     inkscape:pageopacity="0.0"
     inkscape:pageshadow="2"
     inkscape:zoom="0.27455631"
     inkscape:cx="-459.46466"
     inkscape:cy="186.70972"
     inkscape:document-units="mm"
     inkscape:current-layer="layer1"
     showgrid="false"
     inkscape:window-width="1366"
     inkscape:window-height="715"
     inkscape:window-x="1016"
     inkscape:window-y="31"
     inkscape:window-maximized="1"
     fit-margin-top="0"
     fit-margin-left="0"
     fit-margin-right="0"
     fit-margin-bottom="0" />
  <metadata
     id="metadata5">
    <rdf:RDF>
      <cc:Work
         rdf:about="">
        <dc:format>image/svg+xml</dc:format>
        <dc:type
           rdf:resource="http://purl.org/dc/dcmitype/StillImage" />
        <dc:title></dc:title>
      </cc:Work>
    </rdf:RDF>
  </metadata>
  <g
     inkscape:label="Camada 1"
     inkscape:groupmode="layer"
     id="layer1"
     transform="translate(-6.1833656,-101.57885)">
    <path
       style="opacity:1;fill:#000080;fill-opacity:1;stroke:none;stroke-width:0.21991068"
       d="m 6.1833656,202.4988 c 4.4e-4,4.38358 3.55392,7.93706 7.9375004,7.9375 h 61.609162 c 4.38358,-4.4e-4 7.93706,-3.55392 7.9375,-7.9375 v -92.98244 c -5.3e-4,-4.38359 -3.55392,-7.93707 -7.9375,-7.93751 H 14.120866 c -4.3835804,5.3e-4 -7.9370604,3.55392 -7.9375004,7.93751 z m 6.7815004,-5.3082 v -82.36654 c 4.3e-4,-3.88287 2.77141,-7.03048 6.1898,-7.03111 h 51.541562 c 3.4186,2.7e-4 6.1899,3.14801 6.19032,7.03111 v 82.36654 c -4.2e-4,3.8831 -2.77172,7.0308 -6.19032,7.03109 H 19.154666 c -3.41839,-6.1e-4 -6.18938,-3.14822 -6.1898,-7.03109 z"
       id="path4539-2-8"
       inkscape:connector-curvature="0"
       sodipodi:nodetypes="cccccccccccccccccc" />
    <ellipse
       style="opacity:1;fill:#000080;fill-opacity:1;stroke:none;stroke-width:0.02022262"
       id="path4587"
       cx="44.925446"
       cy="194.98503"
       rx="4.0038743"
       ry="3.7587392" />
  </g>
</svg>
